<svg xmlns="http://www.w3.org/2000/svg" viewBox="0 0 660.91 138.43"><title>fredonia_logo</title><path d="M121.82,34.41,75.4,17,28.53,34.43,75.42,57.59l0,17.81L43,59.42V77.28l32.38,16v18.3L107.47,95V124.3l14.39-7.19ZM107.39,78.34,88.25,69l19.18-9.37Z" transform="translate(-28.53 -16.96)" style="fill:#0054a6"/><polygon points="14.52 77.95 43.71 92.39 14.46 107.31 14.52 77.95" style="fill:#0054a6"/><path d="M219.4,155.38c3.25,0,5.61-1.63,5.61-4.45,0-2.58-1.58-3.86-4.52-5.07l-1.12-.48c-1.75-.71-2.48-1.25-2.48-2.46s.86-1.87,2.23-1.87a2.9,2.9,0,0,1,2.77,1.56l2.1-1.21a5.17,5.17,0,0,0-4.87-2.53c-2.87,0-4.84,1.71-4.84,4.1s1.52,3.67,4,4.71l1.14.48c1.88.78,2.89,1.39,2.89,2.79s-1.24,2.21-3,2.21a4.3,4.3,0,0,1-4-2.25l-2.2,1.13c1,1.83,2.94,3.34,6.21,3.34Zm12.75-.21h2.66V141.26h5.13v-2.2H227v2.2h5.13v13.91Zm6.67,0h2.59l1.26-2.94H250l1.26,2.94h2.79l-7.56-16.28h-.3l-7.38,16.28Zm4.77-5,1.88-4.39a24,24,0,0,0,.83-2.37c0,.12.48,1.5.86,2.37l1.88,4.39Zm14.74,5H261V141.26h5.12v-2.2H253.2v2.2h5.13v13.91Zm10.77,0h11.31V153h-8.62v-4.81h7.33V146h-7.33v-4.74h8.27v-2.2h-11v16.11Zm27.92.21c3.73,0,6.57-2,6.57-5.87V139.06h-2.66v10.31c0,2.6-1.39,3.76-3.91,3.76s-3.88-1.16-3.88-3.76V139.06h-2.68v10.45c0,3.91,2.81,5.87,6.56,5.87Zm24.63,0H322V139.06h-2.49v8.86c0,.9.18,2.32.18,2.32s-.94-1.13-1.6-1.8l-9.51-9.55h-.35v16.28h2.48v-8.88a21.23,21.23,0,0,0-.18-2.33s.94,1.12,1.63,1.8l9.51,9.58Zm5.08-.17h2.66V139.06h-2.66v16.11Zm13.18.17h.33l7.35-16.28H345l-3.83,8.65a20.46,20.46,0,0,0-1,2.86,25,25,0,0,0-1.05-2.86l-3.88-8.65h-2.86l7.56,16.28Zm10.64-.17h11.32V153h-8.63v-4.81h7.33V146h-7.33v-4.74h8.27v-2.2h-11v16.11Zm15,0h2.69v-6h3.12l3.73,6h3.06l-4.05-6.37a4.65,4.65,0,0,0,3.5-4.62c0-3.56-2.72-5.12-6.27-5.12h-5.78v16.11Zm2.69-8.08v-5.83h3c2.26,0,3.6.83,3.6,2.92s-1.32,2.91-3.6,2.91Zm17.93,8.29c3.25,0,5.61-1.63,5.61-4.45,0-2.58-1.57-3.86-4.52-5.07l-1.11-.48c-1.75-.71-2.49-1.25-2.49-2.46s.86-1.87,2.23-1.87a2.9,2.9,0,0,1,2.77,1.56l2.1-1.21a5.16,5.16,0,0,0-4.87-2.53c-2.86,0-4.84,1.71-4.84,4.1s1.52,3.67,4,4.71l1.14.48c1.88.78,2.89,1.39,2.89,2.79s-1.24,2.21-3,2.21a4.29,4.29,0,0,1-4-2.25L380,152c1,1.83,2.94,3.34,6.21,3.34Zm9.32-.21h2.67V139.06h-2.67v16.11Zm10.78,0H409V141.26h5.12v-2.2H401.19v2.2h5.12v13.91Zm16.1,0h2.69v-6.06l5.73-10.05h-2.76l-3.25,5.8c-.48.9-1,2.3-1,2.3a23.08,23.08,0,0,0-1-2.3l-3.32-5.8h-3l6,10.21v5.9Zm25.88.21c4.92,0,8.87-3.46,8.87-8.26s-4-8.27-8.87-8.27-8.91,3.45-8.91,8.27,4,8.26,8.91,8.26Zm0-2.25a6,6,0,1,1,6.13-6,5.9,5.9,0,0,1-6.13,6Zm12.69,2h2.69v-6.49H471v-2.23h-7.31v-5.19h8.07v-2.2H461v16.11Zm34.12.17h.33V139.06h-2.49v8.86c0,.9.18,2.32.18,2.32s-.94-1.13-1.6-1.8L482,138.89h-.36v16.28h2.49v-8.88A21.23,21.23,0,0,0,484,144s.94,1.12,1.62,1.8l9.52,9.58Zm5-.17h11.32V153h-8.63v-4.81h7.33V146h-7.33v-4.74h8.27v-2.2h-11v16.11Zm19.81.17h.33l4.39-9.6c.33-.76.73-1.89.76-1.94a16,16,0,0,0,.71,1.94l4.28,9.6h.33l6-16.28h-2.62l-3,8.58a20.77,20.77,0,0,0-.69,2.29c-.05-.14-.43-1.44-.81-2.29l-4-8.75h-.33l-4,8.75c-.4.9-.81,2.22-.83,2.29,0-.09-.36-1.42-.66-2.29l-3-8.58h-2.81l6,16.28Zm30.74-.17h2.69v-6.06l5.73-10.05h-2.76l-3.25,5.8c-.48.9-1,2.3-1,2.3s-.56-1.42-1-2.3l-3.32-5.8h-3l6,10.21v5.9Zm17.91.21c4.92,0,8.88-3.46,8.88-8.26s-4-8.27-8.88-8.27-8.9,3.45-8.9,8.27,3.95,8.26,8.9,8.26Zm0-2.25a6,6,0,1,1,6.14-6,5.9,5.9,0,0,1-6.14,6Zm12.69,2H584v-6h3.12l3.73,6h3.07l-4.06-6.37a4.64,4.64,0,0,0,3.5-4.62c0-3.56-2.71-5.12-6.26-5.12h-5.79v16.11Zm2.69-8.08v-5.83h3c2.25,0,3.6.83,3.6,2.92s-1.32,2.91-3.6,2.91Zm13.38,8.08H600v-4.9l2-2.21,5.3,7.11h3.22l-6.72-9,6.06-7.13h-3l-5.63,6.54a14.14,14.14,0,0,0-1.37,2.15,21.16,21.16,0,0,0,.2-2.39v-6.3h-2.69v16.11Z" transform="translate(-28.53 -16.96)"/><path d="M167.29,117.55h-14.6V34.72h52.4V47.77h-37.8l0,21.91h34.27V82.77H167.27Zm61.83,0-14.56,0V34.72l33.06,0c9.54,0,15.49,4,18.81,7.32a23.46,23.46,0,0,1,6.81,16.58,24,24,0,0,1-15.85,22.69l16.27,36.22H259.51L244,82.78H229.11Zm0-47.89h19.5a11,11,0,0,0,11.33-11.09c0-6.17-4.86-10.82-11.31-10.82H229.11Zm108.41,47.87H284.16V34.72h53.35V47.77H298.76l0,21.91h34.41V82.77H298.74v21.76h38.81Zm35.52,0H349.81V34.72H373c26.41,0,44.15,16.64,44.15,41.41S399.45,117.55,373,117.55Zm-8.63-13h7.8c19,0,29.91-10.34,29.91-28.37s-10.9-28.36-29.91-28.36h-7.8Zm219.32,13.67L531.89,66.33l-.1,51.21H517.21V33.86l52.07,52.06.07-51.21h14.4Zm25.91-.62H595.16V34.72h14.48Zm79.8,0H675.29l-7.4-16.76H635.57l-7.44,16.76H614.05l37.71-83.49ZM641.35,87.7H662.1c-4-9-8.44-19.06-10.36-23.52C649.59,69.08,644.35,80.92,641.35,87.7Zm-173.93-54c-24.35,0-42.72,18.26-42.72,42.48s18.37,42.49,42.72,42.49S510,100.36,510,76.13,491.71,33.65,467.42,33.65Zm0,72.68c-16.88,0-28.88-13-28.88-30.2s12-30.19,28.88-30.19,28.77,13,28.77,30.19S484.3,106.33,467.42,106.33Z" transform="translate(-28.53 -16.96)"/></svg>