<?xml version="1.0" encoding="UTF-8"?><svg version="1.1" viewBox="0 0 1200 408.4" xmlns="http://www.w3.org/2000/svg"><title>Northrop Grumman logo</title><g transform="matrix(10.545 0 0 -10.545 -12183 6882.7)" fill="#00269a"><g transform="translate(1164.3 643.62)"><path d="m0 0h2.372l4.251-5.388v5.388h2.367v-9.09h-2.44l-4.178 5.423v-5.423h-2.372z"/></g><g transform="translate(1181.3 637.17)"><path d="m0 0c0.486 0.499 0.736 1.151 0.736 1.947 0 0.735-0.25 1.352-0.748 1.85-0.498 0.499-1.127 0.748-1.875 0.748-0.759 0-1.377-0.261-1.875-0.759-0.487-0.499-0.736-1.139-0.736-1.911 0-0.771 0.238-1.4 0.725-1.899 0.474-0.486 1.103-0.735 1.874-0.735 0.772 0 1.4 0.249 1.899 0.759m-5.483-1.59c-0.949 0.926-1.413 2.089-1.413 3.501 0 1.423 0.488 2.598 1.473 3.524 0.961 0.891 2.136 1.341 3.548 1.341s2.611-0.463 3.572-1.388c0.961-0.914 1.436-2.054 1.436-3.395 0-1.447-0.487-2.646-1.46-3.595-0.961-0.914-2.148-1.377-3.56-1.377-1.461 0-2.658 0.463-3.596 1.389"/></g><g transform="translate(1188.8 639.52)"><path d="m0 0c0.819 0 1.222 0.38 1.222 1.139s-0.391 1.14-1.198 1.14h-0.739v-2.279zm-3.085 4.094h3.619c0.903 0 1.626-0.25 2.207-0.736 0.593-0.522 0.903-1.222 0.903-2.112 0-1.258-0.523-2.089-1.567-2.481l2.433-3.761h-2.837l-1.91 3.204h-0.478v-3.204h-2.37z"/></g><g transform="translate(1195.6 641.25)"><path d="m0 0h-1.924v2.371h6.218v-2.371h-1.925v-6.72h-2.369z"/></g><g transform="translate(1201.4 643.62)"><path d="m0 0h2.37v-3.212h3.328v3.212h2.371v-9.091h-2.371v3.508h-3.328v-3.508h-2.37z"/></g><g transform="translate(1214.3 639.52)"><path d="m0 0c0.818 0 1.222 0.38 1.222 1.139s-0.391 1.14-1.199 1.14h-0.738v-2.279zm-3.085 4.094h3.619c0.902 0 1.626-0.25 2.207-0.736 0.593-0.522 0.902-1.222 0.902-2.112 0-1.258-0.522-2.089-1.566-2.481l2.433-3.761h-2.837l-1.91 3.204h-0.478v-3.204h-2.37z"/></g><g transform="translate(1226 637.17)"><path d="m0 0c0.486 0.499 0.735 1.151 0.735 1.947 0 0.735-0.249 1.352-0.748 1.85-0.498 0.499-1.127 0.748-1.875 0.748-0.758 0-1.377-0.261-1.875-0.759-0.485-0.499-0.735-1.139-0.735-1.911 0-0.771 0.237-1.4 0.724-1.899 0.474-0.486 1.104-0.735 1.875-0.735 0.772 0 1.4 0.249 1.899 0.759m-5.482-1.59c-0.951 0.926-1.414 2.089-1.414 3.501 0 1.423 0.488 2.598 1.473 3.524 0.961 0.891 2.136 1.341 3.548 1.341 1.413 0 2.61-0.463 3.571-1.388 0.961-0.914 1.437-2.054 1.437-3.395 0-1.447-0.487-2.646-1.46-3.595-0.961-0.914-2.149-1.377-3.561-1.377-1.46 0-2.657 0.463-3.594 1.389"/></g><g transform="translate(1233.8 639.44)"><path d="m0 0c0.937 0 1.4 0.404 1.4 1.222 0 0.783-0.451 1.163-1.377 1.163h-0.809v-2.385zm-3.157 4.177h4.059c0.878 0 1.59-0.284 2.1-0.878 0.512-0.546 0.76-1.281 0.76-2.172 0-0.854-0.248-1.542-0.76-2.064-0.498-0.534-1.186-0.808-2.029-0.808h-1.759v-3.168h-2.371z"/></g><g transform="translate(1175.8 624.12)"><path d="m0 0c-0.878 0.926-1.329 2.089-1.329 3.477 0 1.365 0.451 2.516 1.329 3.454 0.913 0.96 2.041 1.435 3.395 1.435 1.827 0 3.191-0.759 4.105-2.278l-1.898-1.045c-0.047 0.119-0.144 0.25-0.286 0.404-0.509 0.569-1.163 0.854-1.946 0.854s-1.365-0.308-1.756-0.913c-0.332-0.51-0.499-1.175-0.499-2.006 0-0.842 0.202-1.495 0.594-1.982 0.428-0.534 1.057-0.795 1.875-0.795 0.475 0 0.914 0.154 1.306 0.451 0.426 0.321 0.665 0.7 0.712 1.163h-2.088v1.899h4.556v-0.499c0-1.542-0.38-2.753-1.152-3.631-0.807-0.914-1.97-1.377-3.501-1.377-1.388 0-2.526 0.463-3.417 1.389"/></g><g transform="translate(1188.3 628.06)"><path d="m0 0c0.818 0 1.222 0.38 1.222 1.139 0 0.76-0.391 1.14-1.199 1.14h-0.738v-2.279zm-3.085 4.094h3.619c0.902 0 1.626-0.25 2.207-0.736 0.594-0.522 0.902-1.222 0.902-2.112 0-1.258-0.522-2.089-1.566-2.481l2.433-3.761h-2.837l-1.91 3.204h-0.478v-3.204h-2.37z"/></g><g transform="translate(1194.9 623.53)"><path d="m0 0c-0.808 0.605-1.223 1.436-1.223 2.48v6.148h2.373v-5.649c0-1.092 0.546-1.638 1.639-1.638 0.485 0 0.904 0.131 1.19 0.392 0.295 0.272 0.45 0.652 0.45 1.127v5.768h2.371v-5.887c0-1.151-0.393-2.041-1.188-2.682-0.723-0.569-1.684-0.854-2.872-0.854-1.092 0-2.005 0.261-2.74 0.795"/></g><g transform="translate(1208.7 627.46)"><path d="m0 0 3.002 4.698h2.371v-9.091h-2.367v5.335h-4e-3l-2.363-3.708h-1.257l-2.375 3.708h-4e-3v-5.335h-2.376v9.091h2.376z"/></g><g transform="translate(1221.4 627.46)"><path d="m0 0 3.001 4.698h2.372v-9.091h-2.368v5.335h-4e-3l-2.362-3.708h-1.257l-2.375 3.708h-9e-3l-1e-3 -5.335h-2.37v9.091h2.375z"/></g><g transform="translate(1233.6 626.58)"><path d="m0 0-0.961 2.777-0.973-2.777zm-2.286 5.578h2.714l3.37-9.091h-2.564l-0.617 1.685h-3.143l-0.606-1.685h-2.529z"/></g><g transform="translate(1238.7 632.15)"><path d="m0 0h2.374l4.181-5.388v5.388h2.369v-9.091h-2.374l-4.178 5.424v-5.424h-2.372z"/></g><g transform="translate(1238.7 643.62)"><path d="m0 0v-2.373h19.036v-18.179h2.372v20.552z"/></g></g></svg>