<?xml version="1.0" encoding="UTF-8"?><svg version="1.1" viewBox="0 0 72.068268 10.61719" xmlns="http://www.w3.org/2000/svg" xmlns:cc="http://creativecommons.org/ns#" xmlns:dc="http://purl.org/dc/elements/1.1/" xmlns:rdf="http://www.w3.org/1999/02/22-rdf-syntax-ns#"><metadata><rdf:RDF><cc:Work rdf:about=""><dc:format>image/svg+xml</dc:format><dc:type rdf:resource="http://purl.org/dc/dcmitype/StillImage"/><dc:title/></cc:Work></rdf:RDF></metadata><g transform="translate(-45.609 -150.33)"><path d="m45.609 160.95h72.068v-10.617h-72.068z" fill="#cf2f44"/><path d="m49.41 153.01c-1.168 0-1.8613 0.85831-1.8613 2.4493 0 1.5903 0.69321 2.4479 1.8613 2.4479 1.1684 0 1.8616-0.8576 1.8616-2.4479 0-1.591-0.69321-2.4493-1.8616-2.4493m0 4.4496c-0.83855 0-1.3339-0.64629-1.3339-2.0002 0-1.3543 0.4953-2.0006 1.3339-2.0006 0.8382 0 1.3335 0.64629 1.3335 2.0006 0 1.354-0.4953 2.0002-1.3335 2.0002" fill="#fff"/><path d="m66.139 157.91c0.97719 0 1.4665-0.60713 1.6778-1.4915l-0.47519-0.0928c-0.1464 0.58067-0.42968 1.1374-1.162 1.1374-0.79199 0-1.3324-0.62336-1.3324-2.001 0-1.3674 0.54046-2.0017 1.2263-2.0017 0.71261 0 1.0171 0.41064 1.1885 1.083l0.48789-0.14534c-0.21026-0.87101-0.72531-1.3861-1.6108-1.3861-1.1472 0-1.821 0.89853-1.821 2.45 0 1.6683 0.75248 2.4479 1.821 2.4479" fill="#fff"/><path d="m87.871 155.39c0-1.5649-0.85725-2.383-2.1516-2.383h-1.2809v4.766h1.2541c1.4266 0 2.1784-0.98425 2.1784-2.383m-2.9027 1.9336v-3.8682h0.73836c0.9772 0 1.6369 0.54186 1.6369 1.9346 0 1.2799-0.56797 1.9336-1.663 1.9336z" fill="#fff"/><path d="m52.437 155.82c0.23107-0.72602 0.55033-1.1264 1.1599-1.1405v-0.48824c-0.58385 0-0.87454 0.27128-1.1462 0.75353h-0.01376v-0.69991h-0.4886v3.5288h0.4886z" fill="#fff"/><path d="m54.666 157.19c0 0.44697 0.22472 0.58279 0.75389 0.58279 0.28434 0 0.48154-0.0261 0.56938-0.054v-0.4004c-0.12841 0.0194-0.27093 0.0332-0.43427 0.0332-0.28469 0-0.3997-0.0801-0.3997-0.24377v-2.5107h0.81421v-0.42051h-0.81421v-1.161l-0.4893 0.23566v0.92533h-0.57609v0.42051h0.57609z" fill="#fff"/><path d="m57.121 155.13c0.22366-0.23777 0.64417-0.53622 1.0114-0.53622 0.35242 0 0.57644 0.15593 0.57644 0.62441v2.5513h0.48824v-2.564c0-0.76023-0.49636-1.0329-1.0181-1.0329-0.4004 0-0.76659 0.23142-1.0449 0.54293h-0.01305v-1.699l-0.4893 0.23495v4.518h0.4893z" fill="#fff"/><path d="m61.156 157.91c0.96344 0 1.4464-0.81527 1.4464-1.8316 0-1.0195-0.48295-1.8337-1.4464-1.8337-0.96379 0-1.4457 0.81421-1.4457 1.8337 0 1.0164 0.48189 1.8316 1.4457 1.8316m0-3.2441c0.58385 0 0.95814 0.50165 0.95814 1.4125 0 0.90734-0.3743 1.4118-0.95814 1.4118-0.58314 0-0.95709-0.50447-0.95709-1.4118 0-0.91087 0.37394-1.4125 0.95709-1.4125" fill="#fff"/><path d="m68.922 153.02-0.48895 0.23495v4.5184h0.48895z" fill="#fff"/><path d="m70.204 154.24h-0.48931v3.5288h0.48931z" fill="#fff"/><path d="m71.466 155.13c0.22401-0.23777 0.64452-0.53622 1.0107-0.53622 0.35384 0 0.57714 0.15593 0.57714 0.62406v2.5516h0.48895v-2.564c0-0.76023-0.49565-1.0329-1.0178-1.0329-0.40005 0-0.76729 0.23142-1.0456 0.54328h-0.01341v-0.47484h-0.48895v3.5285h0.48895z" fill="#fff"/><path d="m74.782 154.24h-0.48895v3.5288h0.48895z" fill="#fff"/><path d="m76.697 157.84c0.6985 0 1.0107-0.2988 1.3645-0.89606l-0.39511-0.17568c-0.27093 0.50236-0.52246 0.65123-0.96943 0.65123-0.60466 0-0.95814-0.51611-0.95814-1.4115 0-0.89641 0.35348-1.4118 0.95814-1.4118 0.41981 0 0.6985 0.27199 0.83467 0.6985l0.45438-0.16263c-0.22507-0.54963-0.56339-0.95709-1.289-0.95709-0.88371 0-1.4467 0.69321-1.4467 1.833 0 1.1402 0.56303 1.832 1.4467 1.832" fill="#fff"/><path d="m78.458 156.87c0 0.64523 0.46143 0.97049 1.0047 0.97049 0.52952 0 0.92251-0.28398 1.167-0.55598l0.05609 0.4879h0.50094c-0.04692-0.18239-0.08114-0.37254-0.08114-0.75918v-1.778c0-0.77435-0.62512-1.0598-1.2217-1.0598-0.66499 0-1.0993 0.34008-1.3247 0.74719l0.42898 0.22401c0.0949-0.23707 0.35842-0.54963 0.90241-0.54963 0.42086 0 0.72531 0.17604 0.72531 0.64453v0.18944c-1.5667 0.27905-2.1579 0.66604-2.1579 1.439m2.1579-0.0339c-0.28399 0.32597-0.73201 0.5842-1.0851 0.5842-0.27093 0-0.58385-0.21696-0.58385-0.54363 0-0.48754 0.54963-0.81386 1.669-1.0107z" fill="#fff"/><path d="m82.292 153.02-0.48966 0.23495v4.5184h0.48966z" fill="#fff"/><path d="m88.434 157.77h0.48895v-3.5288h-0.48895z" fill="#fff"/><path d="m91.723 157.28 0.05398 0.4886h0.502c-0.04833-0.18309-0.08114-0.37324-0.08114-0.75953v-1.778c0-0.77435-0.62406-1.0598-1.222-1.0598-0.66534 0-1.1007 0.34008-1.3236 0.74683l0.42792 0.22437c0.09596-0.23742 0.35983-0.54998 0.90311-0.54998 0.42086 0 0.72531 0.17639 0.72531 0.64523v0.18909c-1.5674 0.27869-2.1579 0.66604-2.1579 1.439 0 0.64488 0.46284 0.97084 1.0044 0.97084 0.52881 0 0.92322-0.28469 1.168-0.55668m-1.0989 0.13617c-0.2727 0-0.5842-0.21696-0.5842-0.54398 0-0.48719 0.54998-0.81386 1.6686-1.0104v0.97014c-0.2854 0.32597-0.73272 0.5842-1.0844 0.5842" fill="#fff"/><path d="m95.856 158.12c0-0.69321-0.53728-0.99131-2.2059-0.99131-0.17568 0-0.2914-0.0945-0.2914-0.25823 0-0.15593 0.08784-0.27093 0.27658-0.32561 0.19156 0.0547 0.34008 0.0952 0.62548 0.0952 0.7119 0 1.2883-0.53552 1.2883-1.2347 0-0.32632-0.14182-0.59726-0.24412-0.71932 0.12241-0.0614 0.33937-0.0952 0.54398-0.0952v-0.4893c-0.26635 0.0279-0.55069 0.16369-0.76094 0.31291-0.22931-0.16298-0.49636-0.24483-0.87595-0.24483-0.75212 0-1.337 0.48895-1.337 1.2358 0 0.38664 0.15028 0.73307 0.48366 0.98389-0.2734 0.16934-0.47625 0.29916-0.47625 0.60396 0 0.21061 0.16969 0.42121 0.44132 0.50306-0.38029 0.1965-0.59725 0.36618-0.59725 0.71861 0 0.58349 0.52952 0.85513 1.5198 0.85513 1.1007 0 1.6097-0.43427 1.6097-0.95003m-2.5185-2.7146c0-0.46144 0.29774-0.81457 0.85549-0.81457 0.59655 0 0.895 0.32526 0.895 0.84173 0 0.42086-0.28434 0.7874-0.84173 0.7874-0.54292 0-0.90876-0.34572-0.90876-0.81456m-0.14922 2.8028c0-0.25082 0.21766-0.59055 0.98319-0.59055 0.86254 0 1.215 0.17639 1.2217 0.52212-0.0067 0.34713-0.48154 0.5087-1.0654 0.5087-0.97649 0-1.1395-0.17533-1.1395-0.44027" fill="#fff"/><path d="m99.086 157.77v-2.5643c0-0.76024-0.49565-1.0326-1.0185-1.0326-0.4004 0-0.76729 0.23142-1.0456 0.54328h-0.01235v-0.4752h-0.48966v3.5288h0.48966v-2.6395c0.22296-0.23778 0.64382-0.53587 1.0111-0.53587 0.35242 0 0.57644 0.15593 0.57644 0.62371v2.5516z" fill="#fff"/><path d="m102.49 156.01c0-1.0185-0.48331-1.833-1.446-1.833-0.96449 0-1.445 0.81456-1.445 1.833 0 1.0178 0.48048 1.832 1.445 1.832 0.96273 0 1.446-0.81421 1.446-1.832m-1.446 1.4118c-0.58455 0-0.95673-0.50201-0.95673-1.4118 0-0.90911 0.37218-1.4118 0.95673-1.4118 0.58456 0 0.95744 0.50271 0.95744 1.4118 0 0.90981-0.37288 1.4118-0.95744 1.4118" fill="#fff"/><path d="m103.44 155.12c0-0.31186 0.22331-0.52282 0.63676-0.52282 0.381 0 0.63959 0.16405 0.91017 0.49601l0.33867-0.29916c-0.23742-0.35948-0.74719-0.61065-1.2083-0.61806-0.67733-6e-3 -1.1455 0.34043-1.167 0.95109-0.0409 1.2894 2.0493 0.81491 2.0493 1.7099 0 0.2981-0.23036 0.58385-0.76059 0.58385-0.44027 0-0.77858-0.21061-1.01-0.54363l-0.38735 0.2921c0.32667 0.43497 0.86325 0.67204 1.4118 0.67204 0.63923 0 1.2354-0.34537 1.2354-1.0315 0-1.3169-2.0489-0.92322-2.0489-1.6898" fill="#fff"/><path d="m106.81 157.17v-2.5114h0.81315v-0.42087h-0.81315v-1.1606l-0.49071 0.23566v0.92498h-0.57644v0.42087h0.57644v2.5933c0 0.44697 0.22542 0.58279 0.75388 0.58279 0.2854 0 0.48225-0.0268 0.57044-0.0543v-0.40041c-0.12911 0.0212-0.27128 0.0346-0.43321 0.0346-0.28645 0-0.4004-0.0818-0.4004-0.24447" fill="#fff"/><path d="m108.39 157.77h0.48789v-3.5288h-0.48789z" fill="#fff"/><path d="m110.96 157.42c-0.6029 0-0.95814-0.51647-0.95814-1.4122s0.35524-1.4115 0.95814-1.4115c0.42122 0 0.69815 0.27199 0.83502 0.69885l0.45438-0.16263c-0.22436-0.54998-0.56409-0.95744-1.2894-0.95744-0.88265 0-1.4457 0.69321-1.4457 1.8327 0 1.1405 0.56303 1.8327 1.4457 1.8327 0.69815 0 1.0118-0.2988 1.3652-0.89641l-0.39758-0.17603c-0.26952 0.50235-0.51894 0.65193-0.96767 0.65193" fill="#fff"/><path d="m113.18 155.12c0-0.31186 0.22507-0.52282 0.63959-0.52282 0.37888 0 0.63676 0.16405 0.90946 0.49601l0.33902-0.29916c-0.23883-0.35948-0.74683-0.61065-1.2097-0.61806-0.67839-6e-3 -1.1451 0.34043-1.1663 0.95109-0.0406 1.2894 2.0503 0.81491 2.0503 1.7099 0 0.2981-0.23177 0.58385-0.76059 0.58385-0.44238 0-0.78175-0.21061-1.0107-0.54363l-0.38806 0.2921c0.32667 0.43497 0.86254 0.67204 1.4125 0.67204 0.63818 0 1.2351-0.34537 1.2351-1.0315 0-1.3169-2.0507-0.92322-2.0507-1.6898" fill="#fff"/><path d="m74.53 153.65c0.12241 0 0.23777-0.10795 0.23777-0.25823 0-0.14993-0.11536-0.25824-0.23777-0.25824s-0.23742 0.10831-0.23742 0.25824c0 0.15028 0.115 0.25823 0.23742 0.25823" fill="#fff"/><path d="m88.642 153.65c0.12312 0 0.23742-0.10795 0.23742-0.25823 0-0.14993-0.1143-0.25824-0.23742-0.25824-0.12171 0-0.23671 0.10831-0.23671 0.25824 0 0.15028 0.11501 0.25823 0.23671 0.25823" fill="#fff"/><path d="m108.6 153.65c0.12277 0 0.23812-0.10795 0.23812-0.25823 0-0.14993-0.11535-0.25824-0.23812-0.25824-0.1203 0-0.23636 0.10831-0.23636 0.25824 0 0.15028 0.11606 0.25823 0.23636 0.25823" fill="#fff"/><path d="m69.961 153.65c0.12277 0 0.23848-0.10795 0.23848-0.25823 0-0.14993-0.11571-0.25824-0.23848-0.25824-0.12136 0-0.23671 0.10831-0.23671 0.25824 0 0.15028 0.11536 0.25823 0.23671 0.25823" fill="#fff"/></g></svg>